<svg id="Layer_1" data-name="Layer 1" xmlns="http://www.w3.org/2000/svg" viewBox="0 0 124 110"><defs><style>.cls-1{fill:#ffe53c;}.cls-2{fill:#ff3e3e;}</style></defs><title>Converge Web Elements</title><path class="cls-1" d="M88.1,100.2H35.9L9.81,55,35.9,9.8H88.1L114.19,55ZM42.39,89H81.61l19.61-34L81.61,21H42.39L22.78,55Z"/><polygon class="cls-2" points="1.94 63.72 24.62 103 47.3 63.72 1.94 63.72"/><polygon class="cls-2" points="76.7 63.72 99.38 103 122.06 63.72 76.7 63.72"/><polygon class="cls-2" points="39.32 109.67 84.68 109.67 62 70.38 39.32 109.67"/><polygon class="cls-2" points="113.28 55 113.28 55 113.28 55 113.28 55"/><polygon class="cls-2" points="84.68 0.33 39.32 0.33 62 39.62 84.68 0.33"/><polygon class="cls-2" points="122.06 46.28 99.38 7 76.7 46.28 122.06 46.28"/><polygon class="cls-2" points="24.62 7 1.94 46.28 47.3 46.28 24.62 7"/></svg>