<svg xmlns="http://www.w3.org/2000/svg" width="59.182" height="72.63" viewBox="0 0 59.182 72.63"><path data-name="Path 107" d="M57.706 12.145H47.527a1.227 1.227 0 0 0-1.227 1.226v10.371h-9.815v-7.153a1.227 1.227 0 0 0-1.226-1.227h-3.883v-9.17h6.325v2.263a1.226 1.226 0 1 0 2.453 0V1.476a1.226 1.226 0 1 0-2.453 0V3.74H15.423V1.476a1.226 1.226 0 1 0-2.453 0v6.98a1.226 1.226 0 1 0 2.453 0V6.193h6.325v9.17h-3.882a1.227 1.227 0 0 0-1.23 1.226v7.153h-1.633A13.668 13.668 0 0 0 1.35 37.395v11.838a1.227 1.227 0 0 0 1.226 1.227h10.6a1.227 1.227 0 0 0 1.227-1.227v-7.89a2.675 2.675 0 0 1 2.672-2.672h29.23V50.02a1.227 1.227 0 0 0 1.226 1.226h10.175a1.227 1.227 0 0 0 1.23-1.226V13.372a1.226 1.226 0 0 0-1.23-1.227zM24.201 6.193h4.722v9.17h-4.722zm-5.109 11.623h14.944v5.926H19.092zm-2.022 18.4a5.13 5.13 0 0 0-5.125 5.125v6.669H3.803V37.395a11.213 11.213 0 0 1 11.2-11.2h31.3v10.023zm39.41 12.578h-7.727v-34.2h7.726z" fill="#e15928" stroke="#e15928" stroke-width=".5"/><path data-name="Path 108" d="M7.587 55.433a1.224 1.224 0 0 0-1.46 0c-.251.185-6.128 4.6-6.128 10.34a6.858 6.858 0 1 0 13.715 0c.001-5.735-5.877-10.155-6.127-10.34z" fill="#ffca00"/></svg>