<svg xmlns="http://www.w3.org/2000/svg" width="92.606" height="85.132" viewBox="0 0 92.606 85.132"> <g transform="translate(-1.473 -4.629)" fill="#e15928"><path data-name="Path 87" d="M4 44.873a6.305 6.305 0 0 0 3.513 1.263 39.017 39.017 0 0 0 .95 9.61c.836 2.735.228 14.129 0 18.991a181.705 181.705 0 0 0-.114 2.222c-.095 2.611-1.33 11.394-1.339 11.394l-.2 1.147h9.344v-.95a4.15 4.15 0 0 0-1.994-3.741c-.389-1.263-1.548-5.916.636-10.141.513-.95 1.045-2.155 1.576-3.409 1.263 2.1 3.428 7.179 3.751 17.291v.95h7.34l.285-.351a3.38 3.38 0 0 0 .655-2.469A3.494 3.494 0 0 0 27 84.451c-.551-2.782-2.08-9.638-2.146-9.942v-.171l-.076-.133a3.917 3.917 0 0 1 .085-3.2c.76-2.051 2.326-6.353 2.925-8 3.219.323 7.6.56 13.351.56q3.4 0 7.492-.114c.142 3.532.608 16.143 0 20.159s-.3 5.023.114 5.507a1.092 1.092 0 0 0 .826.4h7.122v-.95c0-.712-.18-3.931-1.842-5.137.266-1.491 1.168-5.45 2.155-9.6 3.229 8.328 1.139 14.386 1.12 14.443l-.533 1.227h8.964v-.95c0-.152.076-3.589-2.061-5.261-.589-8.546 2.023-20.976 2.3-22.239l8.688-18.08 6.846-6.087c.826.066 1.681.1 2.516.1a19.466 19.466 0 0 0 4.748-.5 4.408 4.408 0 0 0 3.162-2.174c.2-.446.37-.8.513-1.092.95-1.985.769-2.393-.9-5.545-.323-.617-.722-1.358-1.177-2.25-3.285-6.381-5.375-7.891-5.564-8.014L68.7 4.83l8.176 10.825a4.748 4.748 0 0 0-2 .665c-1.681-.617-3.656-1.1-4.909-.57a2.137 2.137 0 0 0-1.267 1.424 3.722 3.722 0 0 0 1.18 3.526l-9.163 7.8c-2.849 0-22.552-.171-32.636 0s-13.294 3.048-16.418 5.821l-.883.769c-1.434-.161-5.621-.427-7.767 1.633a4.292 4.292 0 0 0-1.235 3.687A6.277 6.277 0 0 0 4 44.873zM23.067 70.35a5.7 5.7 0 0 0 0 4.748c.237 1.064 1.738 7.843 2.174 10.122l.076.389.323.218A1.9 1.9 0 0 1 26.59 87a1.282 1.282 0 0 1-.076.655h-4.52c-.532-11.9-3.6-16.959-4.748-18.459a168.686 168.686 0 0 0 2.773-7.6 30.082 30.082 0 0 0 5.82 1.204c-.683 1.852-2.06 5.641-2.772 7.55zM53.51 84.868c.532.142.95 1.415 1.139 2.744h-4.5a16.741 16.741 0 0 1 .313-3.7c.674-4.226.209-16.893.057-20.52l3.57-.142a54.477 54.477 0 0 0 1.69 7.264c-.769 3.181-2.972 12.344-2.972 13.465v.731zM11.729 36.811c.418-.351.826-.712 1.234-1.073 3.01-2.659 5.859-5.185 15.193-5.346 10.815-.19 32.722 0 32.94 0h.351L71.3 21.97a17.386 17.386 0 0 0 2.849 1.7l.817-1.719c-1.994-.95-4.748-2.953-4.4-4.264a.256.256 0 0 1 .18-.2c1.026-.446 4.349.8 6.248 1.842l.893-1.671-.218-.114a4.5 4.5 0 0 1 .76.1l.855 1.13L80.8 17.63l-2.535-3.361 6.335 4.747s1.9 1.424 4.985 7.34c.465.95.864 1.652 1.187 2.269 1.424 2.7 1.424 2.7.874 3.8-.152.313-.342.693-.551 1.168s-.874.826-1.9 1.1c-3.922 1.045-10.853 0-11.841-.722L76.223 35.5a9.733 9.733 0 0 0 3.627 1.12l-5.878 5.213-8.83 18.537-.066.2c-.123.57-3.1 14.091-2.326 23.35v.494l.427.247a4.026 4.026 0 0 1 1.48 2.939h-4.472a25.334 25.334 0 0 0-1.51-14.576 53.346 53.346 0 0 1-3.4-17.149h-1.9a46.393 46.393 0 0 0 .427 5.469c-23.473 1.073-31.127-.807-33.235-1.557.342-1.026.56-1.7.589-1.8l-1.814-.579c0 .114-3.561 11.138-6.286 16.38-2.953 5.7-.722 11.765-.617 12.021l.161.4.389.152a2.013 2.013 0 0 1 1.13 1.244H8.994c.342-2.459 1.13-8.385 1.206-10.55 0-.437.057-1.2.114-2.193.437-8.2.769-16.959-.057-19.656-1.026-3.342-1.624-15.8 1.434-18.393zm-7.416 1.282C5.4 37.058 7.6 36.859 9.26 36.9a18.374 18.374 0 0 0-1.681 7.369 4.387 4.387 0 0 1-2.4-.855 4.453 4.453 0 0 1-1.51-3.191 2.4 2.4 0 0 1 .646-2.127z" stroke="#e15928" stroke-width=".5"/><circle data-name="Ellipse 3" cx="1.424" cy="1.424" r="1.424" transform="translate(80.582 22.558)"/></g></svg>