<?xml version="1.0" encoding="utf-8"?>
<!-- Generator: Adobe Illustrator 21.0.2, SVG Export Plug-In . SVG Version: 6.00 Build 0)  -->
<svg version="1.1" id="Layer_1" xmlns="http://www.w3.org/2000/svg" xmlns:xlink="http://www.w3.org/1999/xlink" x="0px" y="0px"
	 viewBox="0 0 79.5 40" style="enable-background:new 0 0 79.5 40;" xml:space="preserve">
<style type="text/css">
	.st0{fill:#008080;}
	.st1{fill:#E15928;}
</style>
<path class="st0" d="M78.3,0.1H7.6C7.1,0.1,6.7,0.5,6.7,1v2.4H4.3c-0.5,0-0.9,0.4-0.9,0.9v2.5H0.9C0.4,6.8,0,7.2,0,7.7V39
	c0,0.5,0.4,0.9,0.9,0.9h70.7c0.5,0,0.9-0.4,0.9-0.9v-2.5H75c0.5,0,0.9-0.4,0.9-0.9v-2.4h2.4c0.5,0,0.9-0.4,0.9-0.9V1
	C79.2,0.5,78.8,0.1,78.3,0.1z M70.6,38H1.9V8.7h68.7V38z M74,34.6h-1.5V7.7c0-0.5-0.4-0.9-0.9-0.9H5.3V5.3h68.8L74,34.6L74,34.6z
	 M77.3,31.3h-1.4v-27c0-0.5-0.4-0.9-0.9-0.9H8.6V2h68.8L77.3,31.3z"/>
<path class="st0" d="M63.8,36.8H8.7c-0.4,0-0.7-0.2-0.9-0.6c-0.8-1.9-2.3-3.4-4.2-4.1C3.2,32,3,31.6,3,31.2V15.5
	c0-0.4,0.2-0.7,0.6-0.9c1.9-0.7,3.4-2.3,4.2-4.1c0.1-0.4,0.5-0.6,0.9-0.6h55.1c0.4,0,0.7,0.2,0.9,0.6c0.8,1.9,2.3,3.4,4.2,4.1
	c0.4,0.1,0.6,0.5,0.6,0.9v15.7c0,0.4-0.2,0.7-0.6,0.9c-1.9,0.7-3.4,2.3-4.2,4.1C64.5,36.6,64.2,36.8,63.8,36.8z M9.3,34.9h53.9
	c0.9-1.9,2.5-3.4,4.4-4.3V16.1c-1.9-0.9-3.5-2.4-4.4-4.3H9.3c-0.9,1.9-2.5,3.4-4.4,4.3v14.4C6.8,31.5,8.4,33,9.3,34.9z"/>
<path class="st1" d="M36.3,33.5C30.6,33.5,26,29,26,23.4s4.6-10.2,10.3-10.2s10.3,4.5,10.3,10.1S41.9,33.5,36.3,33.5z M36.3,15.1
	c-4.7,0-8.4,3.7-8.4,8.2s3.8,8.2,8.4,8.2s8.4-3.7,8.4-8.2S40.9,15.1,36.3,15.1z M15.4,27c-2,0-3.7-1.6-3.7-3.7s1.6-3.7,3.7-3.7
	s3.7,1.6,3.7,3.7S17.4,27,15.4,27z M15.4,21.6c-1,0-1.8,0.8-1.8,1.8s0.8,1.8,1.8,1.8s1.8-0.8,1.8-1.8S16.4,21.6,15.4,21.6z M57.1,27
	c-2,0-3.7-1.6-3.7-3.7s1.6-3.7,3.7-3.7c2.1,0,3.7,1.6,3.7,3.7S59.1,27,57.1,27z M57.1,21.6c-1,0-1.8,0.8-1.8,1.8s0.8,1.8,1.8,1.8
	s1.8-0.8,1.8-1.8S58.1,21.6,57.1,21.6z"/>
</svg>
