<?xml version="1.0" encoding="utf-8"?>
<!-- Generator: Adobe Illustrator 21.0.2, SVG Export Plug-In . SVG Version: 6.00 Build 0)  -->
<svg version="1.1" id="Layer_1" xmlns="http://www.w3.org/2000/svg" xmlns:xlink="http://www.w3.org/1999/xlink" x="0px" y="0px"
	 viewBox="0 0 64 80" style="enable-background:new 0 0 64 80;" xml:space="preserve">
<style type="text/css">
	.st0{fill:none;stroke:#000000;stroke-miterlimit:10;}
</style>
<title>apple</title>
<g>
	<path class="st0" d="M45,18c-2.7,0-5.3,0.3-7.8,1.2c-1.3,0.5-2.7,0.7-4.2,0.8c-0.1-3,0.6-5.9,1.9-8.5c1.7-3.2,4.3-5.9,7.6-7.6
		c0.5-0.3,0.7-0.9,0.4-1.3s-0.9-0.7-1.3-0.4l0,0C38,4,35,7,33.2,10.6c-0.4,0.8-0.7,1.6-1,2.4c-1.5-2.9-3.8-5.3-6.7-6.8
		C20.3,3.5,14,5,13.8,5c-0.5,0.1-0.9,0.7-0.7,1.2c0,0,0,0.1,0,0.1c0.1,0.2,2.3,5.9,7.5,8.5c2.3,1.1,4.7,1.6,7.2,1.5
		c1.2,0,2.4-0.1,3.5-0.3C31.1,17.4,31,18.7,31,20c-1.6-0.1-3.1-0.4-4.6-0.9C24,18.4,21.5,18,19,18c-7.2,0-13,5.8-13,13v1
		c0,11.3,10.2,30,21,30c0.8,0,1.5-0.2,2.3-0.5c0.9-0.3,1.8-0.5,2.8-0.5c0.9,0.1,1.8,0.2,2.7,0.5c0.7,0.3,1.5,0.4,2.3,0.5
		c10.8,0,21-18.7,21-30v-1C58,23.8,52.2,18,45,18z"/>
</g>
</svg>
