<svg id="Layer_1" data-name="Layer 1" xmlns="http://www.w3.org/2000/svg" viewBox="0 0 127.02 110"><defs><style>.cls-1{fill:#ffe53c;}.cls-2{fill:#ff9739;}.cls-3{fill:#ff3e3e;}</style></defs><title>Converge Web Elements</title><path class="cls-1" d="M95.26,110H31.75L0,55,31.75,0H95.26L127,55ZM40.18,95.41H86.84L110.18,55,86.84,14.59H40.18L16.84,55Z"/><path class="cls-2" d="M83.31,89.3H43.7L23.9,55,43.7,20.7H83.31L103.12,55Zm-34-9.72H77.7L91.89,55,77.7,30.42H49.32L35.13,55Z"/><path class="cls-3" d="M73.11,71.63H53.91L44.31,55l9.6-16.63h19.2L82.71,55Zm-15-7.29H68.9L74.29,55,68.9,45.66H58.12L52.73,55Z"/></svg>