<?xml version="1.0" encoding="utf-8"?>
<!-- Generator: Adobe Illustrator 21.0.2, SVG Export Plug-In . SVG Version: 6.00 Build 0)  -->
<svg version="1.1" id="Layer_1" xmlns="http://www.w3.org/2000/svg" xmlns:xlink="http://www.w3.org/1999/xlink" x="0px" y="0px"
	 viewBox="0 0 184.8 187.2" style="enable-background:new 0 0 184.8 187.2;" xml:space="preserve">
<style type="text/css">
	.st0{fill:#E25A29;}
</style>
<path class="st0" d="M88.6,77.4L0,156.2l0.1,0.3h22.4l19.9-17.7v48.4h13.2V127l36.8-32.7l36.8,32.7v60.1h13.2v-48.4l19.9,17.7h22.4
	l0.1-0.3L96.2,77.3C94,75.4,90.9,75.4,88.6,77.4z"/>
<path class="st0" d="M92.5,18.4l69.1,61.4h22.9L96.4,1.5c-2.3-2-5.4-2-7.7,0L0.6,79.8h22.9L92.5,18.4z"/>
<path class="st0" d="M88.6,39.5L0,118.3l0.1,0.3h22.4l69.9-62.2l69.9,62.2h22.4l0.1-0.3L96.2,39.5C94,37.4,90.9,37.4,88.6,39.5z"/>
</svg>
