<svg xmlns="http://www.w3.org/2000/svg" width="884.091" height="410.286" viewBox="0 0 884.091 410.286"><defs><style>.cls-1{fill:#e15928}.cls-2{fill:#ffca00}.cls-3{fill:none;stroke:#ffca00;stroke-width:4px;stroke-dasharray:6 10}</style></defs><g id="what_we_do" data-name="what we do" transform="translate(-231 -767.094)"><g id="noun_Livestock_1176661_000000" transform="translate(231 767.094)"><path id="Path_33" data-name="Path 33" class="cls-1" d="M88.754 48.135l-8.466-8.466A2.278 2.278 0 0 0 78.674 39H37.567a2.286 2.286 0 0 0-2.044 1.263L33.24 44.83a2.289 2.289 0 0 0-.24 1.021v13.7h4.567V46.39l1.411-2.823h3.156V52.7a2.3 2.3 0 0 0 .384 1.267l3.722 5.584-3.722 5.584a2.3 2.3 0 0 0-.384 1.267v6.851H46.7V67.1l2.638-3.958 2.149 2.149 2.131 8.523L58.05 72.7l-1.841-7.358 2.45-1.224h8.6v9.135h4.567v-8.491L76.39 65.9v7.351h4.567v-8.185l.945-.945h2.211l1.653 3.3a2.28 2.28 0 0 0 2.042 1.263h4.567A2.285 2.285 0 0 0 94.66 66.4V52.7h4.567v-4.565H88.754zm1.338 15.986h-.872l-1.653-3.3a2.28 2.28 0 0 0-2.042-1.263h-4.567a2.278 2.278 0 0 0-1.615.669l-1.368 1.363-7.881-1.971-.011.041a2.271 2.271 0 0 0-.544-.107H58.121a2.289 2.289 0 0 0-1.021.24l-3.094 1.548-3.243-3.241-4.063-6.09v-8.443h31.028l8.466 8.466a2.278 2.278 0 0 0 1.615.669h2.284z" transform="translate(38.836 45.497)"/><path id="Path_34" data-name="Path 34" class="cls-1" d="M59.35 49.866l2.058 12.346 4.506-.751-2.284-13.7a2.285 2.285 0 0 0-1.53-1.79l-5.954-1.985-1.861-3.722A2.288 2.288 0 0 0 52.241 39h-27.4a2.278 2.278 0 0 0-1.615.669l-8.466 8.466H2V52.7h4.567v9.135a2.285 2.285 0 0 0 2.284 2.284h4.567a2.3 2.3 0 0 0 1.267-.384l5.749-3.835 2.119 1.06v7.723h4.567v-6.846h4.567v6.851h4.567v-6.851h6.209l-1.573 6.3 4.43 1.108 1.98-7.92 3.782-1.261 1.158 2.316v6.312h4.567v-6.855a2.289 2.289 0 0 0-.24-1.021l-1.932-3.866 1.624-8.114zm-25.379 7.4h-8.6l-4.081-2.04a2.292 2.292 0 0 0-2.29.141l-6.276 4.186h-1.589V52.7H15.7a2.278 2.278 0 0 0 1.615-.669l8.466-8.466H50.83l1.3 2.6-1.87 9.352-5.242 1.753z" transform="translate(-.959 45.497)"/><path id="Path_35" data-name="Path 35" class="cls-2" d="M129.887 56h-4.567v4.567h-9.135V56h-4.567v4.567h-9.135V56h-4.568v4.567H88.78V56h-4.567v4.567h-9.135V56h-4.567v4.567h-9.135V56h-4.567v4.567h-9.135V56h-4.568v4.567h-9.134V56H29.4v4.567h-9.13V56H15.7v4.567H6.567V56H2v13.7h4.567v-4.565H15.7V69.7h4.57v-4.565h9.13V69.7h4.567v-4.565h9.135V69.7h4.567v-4.565h9.135V69.7h4.567v-4.565h9.135V69.7h4.567v-4.565h9.135V69.7h4.572v-4.565h9.135V69.7h4.567v-4.565h9.135V69.7h4.567v-4.565h9.135V69.7h4.567v-4.565h9.135v-4.568h-9.135z" transform="translate(-.959 67.319)"/><path id="Path_36" data-name="Path 36" class="cls-2" d="M47.553 11H29.284A2.285 2.285 0 0 0 27 13.284v9.135a2.285 2.285 0 0 0 2.284 2.281h18.27a2.285 2.285 0 0 0 2.284-2.284v-9.132A2.285 2.285 0 0 0 47.553 11zm-15.986 4.567h4.567v4.567h-4.567zm13.7 4.567H40.7v-4.567h4.57z" transform="translate(31.134 9.553)"/><path id="Path_37" data-name="Path 37" class="cls-2" d="M117.085 53.045c1.879.66 4.216 1.48 10.868 1.48h.242a48.246 48.246 0 0 0 12.314-2.469l-1.8-4.2a42.458 42.458 0 0 1-8.235 1.87V38.352c4.133-.674 9.135-3.542 9.135-13.515C139.607 15.3 135.263 2 128.188 2S116.77 15.3 116.77 24.837c0 9.973 5 12.839 9.135 13.515v11.574a20.432 20.432 0 0 1-7.306-1.19 15.579 15.579 0 0 0-4.113-.961v-6.546L118.1 42.9l1.914-4.147-28.365-13.094v-5.588L94.99 22.2l2.453-3.855L72.322 2.356a2.289 2.289 0 0 0-2.453 0l-25.12 15.986L47.2 22.2l3.341-2.126v5.588L22.182 38.749 24.1 42.9l3.611-1.667v4.549a94.085 94.085 0 0 0-11.418 2.9v-10.33c4.133-.674 9.135-3.542 9.135-13.515C25.422 15.3 21.079 2 14 2S2.585 15.3 2.585 24.837c0 9.973 5 12.839 9.135 13.515v11.914a99.618 99.618 0 0 0-10.176 4.51l2.08 4.065a92.329 92.329 0 0 1 24.082-8.415v17.8h-6.851V63.66h-4.567v4.567H7.153V63.66H2.585v13.7h4.568v-4.566h9.135v4.567h4.567v-4.567h6.851v2.284a2.285 2.285 0 0 0 2.284 2.284h82.21a2.285 2.285 0 0 0 2.284-2.284v-2.284h6.851v4.567h4.565v-4.567h9.135v4.567h4.567V63.66h-4.567v4.567H125.9V63.66h-4.567v4.567h-6.851v-15.86a11.649 11.649 0 0 1 2.603.678zm4.252-28.208c0-9.242 4.334-18.27 6.851-18.27s6.851 9.027 6.851 18.27c0 6.184-2.138 8.246-4.567 8.877V29.4H125.9v4.309c-2.425-.626-4.563-2.688-4.563-8.872zm-114.185 0c0-9.242 4.334-18.27 6.851-18.27s6.851 9.027 6.851 18.27c0 6.184-2.138 8.246-4.567 8.877V29.4H11.72v4.309c-2.43-.626-4.567-2.688-4.567-8.872zm47.013 36.539l-8.189 8.189V53.187zm3.229 3.229l8.189 8.189H49.2zm24.175-3.229l-8.189 8.189V53.187zm-12.757 8.189l-8.189-8.189 8.189-8.189zm15.988-4.96l8.189 8.189h-16.38zm3.229-3.229l8.189-8.189v16.378zM84.8 58.147l-8.189-8.189h16.377zm-27.4 0l-8.2-8.189h16.383zm43.39 14.648V47.674a2.226 2.226 0 0 0-.162-.8 2.359 2.359 0 0 0-.1-.217 2.165 2.165 0 0 0-.32-.475 2.025 2.025 0 0 0-.767-.585c-.018-.009-.034-.023-.053-.032h-.007a2.318 2.318 0 0 0-.79-.158c-.027 0-.053-.016-.082-.016H43.692a2.285 2.285 0 0 0-2.284 2.284v25.119h-9.135V39.121l18.27-8.431v5.565h4.567V17.164L71.1 6.99l15.982 10.174v19.091h4.567V30.69l18.27 8.431v33.673z" transform="translate(-1.544 -2)"/></g><g id="noun_healthy_lifestyle_1176663_000000" data-name="noun_healthy lifestyle_1176663_000000" transform="translate(570.109 774.239)"><path id="Path_40" data-name="Path 40" class="cls-2" d="M3.018 66.143a18.126 18.126 0 0 0 .607 2.473c.038.115.079.227.12.342a17.73 17.73 0 0 0 .928 2.223c.023.048.043.1.066.145a17.576 17.576 0 0 0 1.28 2.074c.11.153.219.3.334.454a16.085 16.085 0 0 0 3.22 3.294c.135.107.275.2.416.3.461.342.936.66 1.422.951.13.079.26.155.393.232a17.69 17.69 0 0 0 4.01 1.665c.028.008.054.02.082.028s.051.005.074.01a17.774 17.774 0 0 0 17.232-4.6 2.546 2.546 0 0 0 0-3.6L11.573 50.5a2.546 2.546 0 0 0-3.6 0A17.814 17.814 0 0 0 3 66c0 .018-.005.036 0 .054 0 .028.013.059.018.089zm11.831 8.328c-.278-.14-.543-.3-.813-.466s-.568-.316-.834-.5A11.914 11.914 0 0 1 10 70.191c-.13-.194-.227-.4-.347-.6a12.609 12.609 0 0 1-.818-1.614 5.591 5.591 0 0 1-.1-.291l8.348-1.392zm4.92 1.336l2.121-7.775 5.725 5.725a12.738 12.738 0 0 1-7.846 2.05zM9.95 56.095l5.328 5.328-7.4 1.231a12.7 12.7 0 0 1 2.072-6.559z" transform="translate(-.811 71.982)"/><path id="Path_41" data-name="Path 41" class="cls-2" d="M37.59 57.867a15.308 15.308 0 0 0-11.612-14.828 24.371 24.371 0 0 1 3.459-6.595L25.349 33.4a29.281 29.281 0 0 0-4.591 9.246A15.3 15.3 0 1 0 37.59 57.867zm-15.295 10.2a10.175 10.175 0 0 1-2.57-20.026 27.24 27.24 0 0 0 .033 4.994l5.07-.525a22.1 22.1 0 0 1-.005-4.479 10.175 10.175 0 0 1-2.529 20.036z" transform="translate(5.746 46.648)"/><path id="Path_42" data-name="Path 42" class="cls-2" d="M2 37.393a10.211 10.211 0 0 0 9.2 10.148l1.043 5.613a2.549 2.549 0 0 0 2.506 2.083h10.2a2.549 2.549 0 0 0 2.506-2.083l1.043-5.613a10.2 10.2 0 0 0 1.545-20.024c0-.107.005-.214.005-.321a10.2 10.2 0 0 0-20.393 0c0 .107 0 .214.005.321A10.215 10.215 0 0 0 2 37.393zm10.12-5.1c.066.008.339.038.4.043a2.481 2.481 0 0 0 2.2-1.017 2.543 2.543 0 0 0 .354-2.394 5.052 5.052 0 0 1-.329-1.731 5.1 5.1 0 0 1 10.2 0 5.027 5.027 0 0 1-.329 1.728 2.548 2.548 0 0 0 .354 2.394 2.51 2.51 0 0 0 2.2 1.017c.038 0 .28-.031.4-.043a5.1 5.1 0 0 1-.071 10.2 5.419 5.419 0 0 1-.739-.084 2.553 2.553 0 0 0-2.875 2.057l-1.055 5.674h-5.963l-1.055-5.677a2.64 2.64 0 0 0-2.965-2.044 4.229 4.229 0 0 1-.65.074 5.1 5.1 0 0 1-.076-10.2z" transform="translate(-2 21.237)"/><path id="Path_43" data-name="Path 43" class="cls-2" d="M85.786 68.531h-2.549c-5.419 0-9.717 1.5-12.746 4.288V60.883c11.293 0 15.295-4 15.295-15.295v-2.549a2.55 2.55 0 0 0-2.549-2.549h-2.549c-4.487 0-7.805.645-10.2 2.116v-5.073c4.385-1.282 7.647-5.736 7.647-11.063 0-6.291-8.094-10.7-9.016-11.181a2.557 2.557 0 0 0-2.361 0c-.923.482-9.016 4.889-9.016 11.181 0 5.33 3.263 9.781 7.647 11.063v5.073C63 41.135 59.683 40.49 55.2 40.49h-2.553a2.55 2.55 0 0 0-2.547 2.549v2.549c0 11.293 4 15.295 15.295 15.295v11.936c-3.028-2.789-7.326-4.288-12.746-4.288H50.1a2.55 2.55 0 0 0-2.549 2.549v2.549c0 11.341 6.5 17.844 17.844 17.844v11c-3.536-3.786-8.764-5.906-15.295-5.906h-2.551A2.55 2.55 0 0 0 45 99.121v2.549c0 12.58 7.813 20.393 20.393 20.393v12.746h5.1v-12.746c11.841 0 17.844-6.86 17.844-20.393v-2.549a2.55 2.55 0 0 0-2.549-2.549h-2.551c-5.537 0-9.779 1.519-12.746 4.5v-9.6c11.341 0 17.844-6.5 17.844-17.844V71.08a2.55 2.55 0 0 0-2.549-2.549zm-5.1-22.942c0 8.481-1.716 10.2-10.2 10.2.005-8.489 1.721-10.2 10.202-10.2zM62.844 26.47c0-2.111 2.932-4.578 5.1-5.968 2.134 1.377 5.1 3.87 5.1 5.968 0 3.513-2.287 6.373-5.1 6.373s-5.1-2.86-5.1-6.373zM55.2 45.589c8.481 0 10.2 1.716 10.2 10.2-8.488-.004-10.2-1.719-10.2-10.2zm-2.553 28.04c8.458 0 12.746 4.288 12.746 12.746-8.458 0-12.746-4.288-12.746-12.746zM50.1 101.67c9.863 0 15.295 5.432 15.295 15.295-9.864 0-15.295-5.433-15.295-15.295zm33.139 0c0 10.864-3.694 15.295-12.746 15.295-.002-10.865 3.692-15.295 12.744-15.295zM70.491 86.375c0-8.458 4.288-12.746 12.746-12.746 0 8.458-4.287 12.746-12.746 12.746z" transform="translate(64.613 18.14)"/><path id="Rectangle_469" data-name="Rectangle 469" class="cls-1" transform="rotate(-45 72.96 -147.48)" d="M0 0h7.209v5.098H0z"/><path id="Rectangle_470" data-name="Rectangle 470" class="cls-1" transform="translate(130.006 17.844)" d="M0 0h7.647v5.098H0z"/><path id="Rectangle_471" data-name="Rectangle 471" class="cls-1" transform="translate(114.712)" d="M0 0h5.098v7.647H0z"/><path id="Rectangle_472" data-name="Rectangle 472" class="cls-1" transform="rotate(-45 17.626 -18.99)" d="M0 0h5.098v7.209H0z"/><path id="Rectangle_473" data-name="Rectangle 473" class="cls-1" transform="translate(33.139)" d="M0 0h5.098v7.647H0z"/><path id="Rectangle_474" data-name="Rectangle 474" class="cls-1" transform="translate(15.295 17.844)" d="M0 0h7.647v5.098H0z"/><path id="Path_44" data-name="Path 44" class="cls-1" d="M56.59 24.295A15.295 15.295 0 1 0 41.295 39.59 15.31 15.31 0 0 0 56.59 24.295zm-25.491 0a10.2 10.2 0 1 1 10.2 10.2 10.207 10.207 0 0 1-10.199-10.2z" transform="translate(35.18 8.844)"/><path id="Path_45" data-name="Path 45" class="cls-1" d="M13.344 18.478L41.04 66.32v21.917L25.835 143.99a2.546 2.546 0 0 0 2.46 3.217H43.59a2.548 2.548 0 0 0 2.391-1.667l15.453-41.94 15.452 41.94a2.548 2.548 0 0 0 2.391 1.667h15.295a2.549 2.549 0 0 0 2.46-3.22L81.827 88.235V66.317l27.7-47.842a2.549 2.549 0 0 0-.676-3.316l-10.2-7.647a2.516 2.516 0 0 0-2-.466A2.554 2.554 0 0 0 94.96 8.2L70.218 47.79H52.649L27.907 8.2a2.542 2.542 0 0 0-1.7-1.155 2.511 2.511 0 0 0-2 .466l-10.2 7.647a2.548 2.548 0 0 0-.663 3.32zm11.711-5.221l24.02 38.433a2.551 2.551 0 0 0 2.162 1.2H71.63a2.552 2.552 0 0 0 2.162-1.2l24.02-38.433 6.166 4.624-26.905 46.476a2.526 2.526 0 0 0-.344 1.277v22.942a2.59 2.59 0 0 0 .089.67l14.418 52.862H81.054L63.825 95.342a2.548 2.548 0 0 0-4.782 0l-17.23 46.767H31.631l14.418-52.862a2.59 2.59 0 0 0 .089-.67V65.634a2.526 2.526 0 0 0-.344-1.277L18.888 17.881z" transform="translate(15.041 5.742)"/></g><path id="Path_101" data-name="Path 101" class="cls-3" d="M-5215.262 2224s-18.646 72.25 23.306 100.218" transform="translate(5530.457 -1296.812)"/><path id="Path_102" data-name="Path 102" class="cls-3" d="M-5081.334 2390.62c102.286 0 7.812-185.287 105.171-185.287" transform="translate(5513.061 -1338.742)"/><g id="noun_butcher_shop_207102_000000" data-name="noun_butcher shop_207102_000000" transform="translate(589.337 1072.04)"><path id="Rectangle_475" data-name="Rectangle 475" class="cls-2" transform="translate(63.862 71.876)" d="M0 0h3.816v6.361H0z"/><path id="Path_48" data-name="Path 48" class="cls-2" d="M102.2 15.088V8.6H21.928v6.488L4.5 41.421v5.343c0 4.453 4.707 8.142 10.813 8.142s11.958-3.689 11.958-8.142v-5.343l12.34-26.206h14.248l-3.816 26.206v5.343c0 4.453 4.58 8.142 10.813 8.142s11.958-3.689 11.958-8.142v-5.343l-4.071-26.206h15.393l11.7 26.206v5.343a2.8 2.8 0 0 0 .127 1.018c.763 3.944 6.106 7.124 11.831 7.124 6.234 0 10.813-3.689 10.813-8.142v-5.343z" transform="translate(-4.5 -8.6)"/><path id="Rectangle_476" data-name="Rectangle 476" class="cls-2" transform="translate(47.197 71.876)" d="M0 0h3.816v6.361H0z"/><path id="Path_49" data-name="Path 49" class="cls-2" d="M92.848 43.427a14.609 14.609 0 0 1-11.068 4.58A16.8 16.8 0 0 1 69.822 43.3a17.112 17.112 0 0 1-12.085 4.707c-4.58 0-8.651-1.781-10.94-4.58a17.848 17.848 0 0 1-12.085 4.58 14.609 14.609 0 0 1-11.068-4.58 15.457 15.457 0 0 1-5.344 3.435V96.73h52.54v-7H60.281V57.039h10.431v-2.926h27.86v-7.124a13.737 13.737 0 0 1-5.724-3.562zm-36 46.179H34.711V57.039h22.135z" transform="translate(-.744 .843)"/><path id="Path_50" data-name="Path 50" class="cls-1" d="M90.25 71.837c-4.071-.636-4.58-5.47-10.3-6.106-4.961-.636-8.015 1.4-10.05 5.216-2.163 3.944.763 9.159 10.686 8.651 5.216-.254 12.849-1.908 13.612-4.325.378-1.273-1.149-3.054-3.948-3.436zM77.4 78.2c-5.343-.636-7.506-4.071-5.6-7.506 1.654-3.053 3.944-4.071 8.142-3.562.127 1.908-1.145 4.325-.509 4.452.254 0 1.272-2.544 3.053-3.944 2.035 1.018 2.544 3.435 2.544 5.216.005 2.67-.759 5.978-7.63 5.344zm10.688-1.91c-1.654-.254-1.272-3.944.763-3.816 2.29.254 3.18 1.527 3.053 2.417-.004 1.272-1.904 1.78-3.816 1.399zM61.5 53.9v46.433h6.233v-6.106H97.12v5.852h6.361V53.9zm19.082 29.9c-14.375-.254-13.612-7.378-13.358-10.813a10.457 10.457 0 0 1 10.686-9.8c8.269.382 8.905 5.725 14.757 6.87a5.213 5.213 0 0 1 4.071 5.47C96.357 82.65 85.671 83.8 80.582 83.8z" transform="translate(11.012 3.728)"/></g><path id="Path_103" data-name="Path 103" class="cls-3" d="M-4835.5 2245.333v106.045" transform="translate(5482.083 -1299.5)"/><path id="Path_104" data-name="Path 104" class="cls-3" d="M-4835.5 2245.333v106.045" transform="translate(5877.129 -1338.829)"/><path id="Path_105" data-name="Path 105" class="cls-3" d="M-4730.667 2406.18c200.088-69.246-106.684-274.9 130.78-318.072" transform="translate(5543.455 -1275.237)"/><g id="noun_Money_625001_000000" transform="translate(723.058 1093.247)"><path id="Path_54" data-name="Path 54" class="cls-1" d="M25.554 65.729c-.087 0-.262.087-.35.087a1.108 1.108 0 0 1-.524-.087L7.987 58.3l-3.845 1.224a.565.565 0 0 0-.087 1.049L24.069 69.4a3.666 3.666 0 0 0 2.36.175l24.122-7.167v-3.846z" transform="translate(-3.124 -23.275)"/><path id="Path_55" data-name="Path 55" class="cls-1" d="M82.527 51.924L79.818 50.7l-8.565 2.535-8.653 2.8v3.755l19.84-6.205a.88.88 0 0 0 .087-1.661z" transform="translate(-10.541 -22.317)"/><path id="Path_56" data-name="Path 56" class="cls-1" d="M82.789 44.273l-3.5-1.573-5.157 1.573L62.6 47.944v4.2l20.1-6.293a.82.82 0 0 0 .089-1.578z" transform="translate(-10.541 -21.309)"/><path id="Path_57" data-name="Path 57" class="cls-1" d="M82.789 36.273l-3.5-1.573L62.6 39.944v4.2l20.1-6.293a.82.82 0 0 0 .089-1.578z" transform="translate(-10.541 -20.301)"/><path id="Path_58" data-name="Path 58" class="cls-1" d="M79.451 28.778a.88.88 0 0 0 .087-1.661l-20.1-8.827a.747.747 0 0 0-.612 0L36.8 25.2l22.636 9.964z" transform="translate(-7.29 -18.225)"/><path id="Path_59" data-name="Path 59" class="cls-1" d="M24.68 57.742L7.987 50.4l-3.845 1.224a.565.565 0 0 0-.087 1.049l20.1 8.827a3.624 3.624 0 0 0 2.36.175l24.122-6.9v-4.288l-25.083 7.342a1.034 1.034 0 0 1-.874-.087z" transform="translate(-3.124 -22.279)"/><path id="Path_60" data-name="Path 60" class="cls-1" d="M42.334 40.161c2.01-.612 8.041-2.1 8.041-2.1L27.651 28.1c-.524.175-7.429 1.923-10.051 2.709l-.961.262a38.933 38.933 0 0 1-12.848 1.312.688.688 0 0 0-.35 1.311L21.8 41.822c6.813 2.796 16.514-.522 20.534-1.661z" transform="translate(-3.036 -19.469)"/><path id="Path_61" data-name="Path 61" class="cls-1" d="M50.663 42.412s-7.516 2.1-11.012 3.059c-.961.262-1.661.437-1.748.437a5.569 5.569 0 0 1-.612.175c-.262.087-.437.087-.7.175-3.583.874-9.789 2.01-15.207-.087-3.583-1.4-10.313-4.37-10.313-4.37l-6.73 1.923a.565.565 0 0 0-.087 1.049l4.37 1.923 15.47 6.817a3.666 3.666 0 0 0 2.36.175l24.122-7.079v-4.2z" transform="translate(-3.149 -21.196)"/></g><g id="noun_Goat_1055002_000000" transform="translate(279.944 1027.406)"><path id="Path_87" data-name="Path 87" d="M3.324 58.692a9.242 9.242 0 0 0 5.15 1.851 57.189 57.189 0 0 0 1.394 14.085c1.225 4.008.334 20.71 0 27.836a259.255 259.255 0 0 0-.167 3.257c-.139 3.827-1.949 16.7-1.962 16.7l-.292 1.684h13.7v-1.392a6.082 6.082 0 0 0-2.923-5.484c-.571-1.851-2.269-8.671.933-14.864.752-1.392 1.531-3.159 2.31-5 1.851 3.076 5.024 10.522 5.5 25.345v1.392h10.748l.418-.515a4.955 4.955 0 0 0 .96-3.619 5.122 5.122 0 0 0-2.06-3.271c-.807-4.078-3.048-14.127-3.145-14.572v-.251l-.111-.195s-.988-1.684.125-4.69 3.41-9.311 4.287-11.733c4.718.473 11.134.821 19.569.821q4.983 0 10.981-.167c.209 5.177.891 23.66 0 29.548s-.445 7.363.167 8.072a1.6 1.6 0 0 0 1.211.585h10.437v-1.392c0-1.044-.264-5.762-2.7-7.53.39-2.185 1.712-7.989 3.159-14.071 4.732 12.206 1.67 21.086 1.642 21.169l-.779 1.809h13.139v-1.392c0-.223.111-5.261-3.02-7.711-.863-12.526 2.965-30.745 3.368-32.6l12.735-26.5 10.035-8.921c1.211.1 2.463.153 3.688.153a28.532 28.532 0 0 0 6.959-.738c2.422-.64 3.981-1.712 4.635-3.187.292-.654.543-1.169.752-1.6 1.392-2.909 1.127-3.507-1.322-8.128-.473-.9-1.058-1.99-1.726-3.3-4.816-9.353-7.878-11.566-8.156-11.747L98.161 0l11.983 15.87a6.959 6.959 0 0 0-2.937.974c-2.463-.9-5.358-1.614-7.2-.835a3.132 3.132 0 0 0-1.851 2.088 5.456 5.456 0 0 0 1.726 5.164L86.456 34.697c-4.175 0-33.055-.251-47.836 0s-19.485 4.473-24.064 8.532l-1.294 1.127c-2.1-.237-8.239-.626-11.385 2.394a6.291 6.291 0 0 0-1.809 5.4 9.2 9.2 0 0 0 3.257 6.541zm27.944 37.342a8.351 8.351 0 0 0 0 6.959c.348 1.559 2.547 11.5 3.187 14.837l.111.571.473.32a2.784 2.784 0 0 1 1.392 1.712 1.879 1.879 0 0 1-.111.96h-6.622c-.779-17.439-5.275-24.857-6.959-27.056 1.545-3.9 2.992-7.989 4.064-11.134a44.092 44.092 0 0 0 8.532 1.767c-1.002 2.713-3.02 8.266-4.067 11.064zm44.621 21.281c.779.209 1.392 2.074 1.67 4.022h-6.591a24.537 24.537 0 0 1 .459-5.428c.988-6.193.306-24.76.084-30.077l5.233-.209a79.847 79.847 0 0 0 2.474 10.647c-1.127 4.662-4.356 18.093-4.356 19.736v1.072zM14.653 46.876a96.992 96.992 0 0 0 1.809-1.573c4.412-3.9 8.587-7.6 22.269-7.836 15.853-.278 47.961 0 48.281 0h.515l14.447-12.345a25.484 25.484 0 0 0 4.175 2.491l1.2-2.519c-2.923-1.392-6.959-4.328-6.444-6.249a.376.376 0 0 1 .264-.292c1.5-.654 6.374 1.169 9.158 2.7l1.308-2.45-.32-.167a6.6 6.6 0 0 1 1.113.153l1.253 1.656 2.213-1.684-3.716-4.927 9.283 6.959s2.784 2.088 7.307 10.759c.682 1.392 1.267 2.422 1.74 3.326 2.088 3.953 2.088 3.953 1.28 5.567-.223.459-.5 1.016-.807 1.712s-1.28 1.211-2.784 1.614c-5.748 1.531-15.908 0-17.356-1.058l-1.656 2.241a14.266 14.266 0 0 0 5.317 1.642l-8.615 7.641-12.946 27.169-.1.292c-.181.835-4.537 20.654-3.41 34.224v.724l.626.362a5.9 5.9 0 0 1 2.171 4.315h-6.552a37.133 37.133 0 0 0-2.208-21.364 78.191 78.191 0 0 1-4.983-25.136h-2.788a68 68 0 0 0 .626 8.017C41.918 84.413 30.7 81.657 27.61 80.557c.5-1.5.821-2.491.863-2.644l-2.658-.849c0 .167-5.219 16.326-9.214 24.008-4.328 8.351-1.058 17.244-.9 17.62l.237.585.571.223a2.951 2.951 0 0 1 1.656 1.823h-7.52c.5-3.6 1.656-12.29 1.768-15.463 0-.64.084-1.754.167-3.215.64-12.025 1.127-24.857-.084-28.81-1.5-4.9-2.38-23.159 2.1-26.959zm-10.87 1.879c1.587-1.517 4.816-1.809 7.251-1.754a26.931 26.931 0 0 0-2.463 10.8 6.43 6.43 0 0 1-3.521-1.253 6.527 6.527 0 0 1-2.213-4.678 3.521 3.521 0 0 1 .946-3.118z" stroke-linecap="round" stroke-width="1.1" stroke="#e15928" fill="#e15928"/><circle id="Ellipse_3" data-name="Ellipse 3" class="cls-1" cx="2.088" cy="2.088" r="2.088" transform="translate(115.572 25.985)"/></g><g id="noun_solar_panels_1878752_000000" data-name="noun_solar panels_1878752_000000" transform="translate(968.619 769.491)"><path id="Path_91" data-name="Path 91" class="cls-1" d="M144.37 78.931h-36.277V55.272l16.045-10.988a3.6 3.6 0 0 0-4.07-5.943L80.045 65.756a3.6 3.6 0 1 0 4.07 5.941l16.772-11.487v18.721H53.382V55.272l16.045-10.988a3.6 3.6 0 0 0-4.07-5.943l-40.02 27.415a3.6 3.6 0 1 0 4.07 5.941l16.772-11.488v18.722H5.1a3.6 3.6 0 1 0 0 7.2h139.27a3.6 3.6 0 1 0 0-7.2z" transform="translate(-1.5 38.136)"/><path id="Path_92" data-name="Path 92" class="cls-2" d="M24.966 46.808A17.22 17.22 0 1 0 7.745 29.587a17.239 17.239 0 0 0 17.221 17.221zm0-27.237a10.017 10.017 0 1 1-10.017 10.016 10.026 10.026 0 0 1 10.017-10.015z" transform="translate(7.25 2.627)"/><path id="Path_93" data-name="Path 93" class="cls-2" d="M17.02 18.129a3.6 3.6 0 0 0 3.6-3.6v-4.8a3.6 3.6 0 1 0-7.2 0v4.8a3.6 3.6 0 0 0 3.6 3.6z" transform="translate(15.199 -6.123)"/><path id="Path_94" data-name="Path 94" class="cls-2" d="M13.417 31.558v4.8a3.6 3.6 0 1 0 7.2 0v-4.8a3.6 3.6 0 1 0-7.2 0z" transform="translate(15.198 24.469)"/><path id="Path_95" data-name="Path 95" class="cls-2" d="M9.441 19.157a3.6 3.6 0 1 0 5.1-5.093l-3.4-3.4a3.6 3.6 0 0 0-5.093 5.093z" transform="translate(3.394 -1.232)"/><path id="Path_96" data-name="Path 96" class="cls-2" d="M26.578 26.107a3.6 3.6 0 0 0-5.093 5.093l3.4 3.4a3.6 3.6 0 0 0 5.1-5.093z" transform="translate(25.024 20.399)"/><path id="Path_97" data-name="Path 97" class="cls-2" d="M24.031 20.211a3.59 3.59 0 0 0 2.548-1.054l3.4-3.4a3.6 3.6 0 1 0-5.093-5.093l-3.4 3.4a3.6 3.6 0 0 0 2.545 6.147z" transform="translate(25.025 -1.232)"/><path id="Path_98" data-name="Path 98" class="cls-2" d="M9.439 26.109l-3.4 3.4a3.6 3.6 0 1 0 5.1 5.091l3.4-3.4a3.6 3.6 0 0 0-5.1-5.091z" transform="translate(3.391 20.4)"/><path id="Path_99" data-name="Path 99" class="cls-2" d="M23.334 21.642a3.6 3.6 0 0 0 3.6 3.6h4.8a3.6 3.6 0 0 0 0-7.2h-4.8a3.6 3.6 0 0 0-3.6 3.6z" transform="translate(29.093 10.575)"/><path id="Path_100" data-name="Path 100" class="cls-2" d="M5.1 25.244h4.8a3.6 3.6 0 1 0 0-7.2H5.1a3.6 3.6 0 0 0 0 7.2z" transform="translate(-1.5 10.575)"/></g><g id="noun_Faucet_2032550_000000" transform="translate(978.633 1051.641)"><path id="Path_107" data-name="Path 107" d="M109.047 25.461H92.171a2.034 2.034 0 0 0-2.033 2.033v17.194H73.865V32.829a2.034 2.034 0 0 0-2.034-2.029h-6.436V15.6h10.486v3.752a2.033 2.033 0 1 0 4.067 0V7.773a2.033 2.033 0 1 0-4.067 0v3.752H38.946V7.773a2.033 2.033 0 0 0-4.067 0v11.572a2.033 2.033 0 0 0 4.067 0v-3.753h10.486V30.8H43a2.034 2.034 0 0 0-2.033 2.033v11.855h-2.718a22.661 22.661 0 0 0-22.635 22.636v19.625a2.034 2.034 0 0 0 2.033 2.033h17.567a2.034 2.034 0 0 0 2.033-2.033v-13.08a4.435 4.435 0 0 1 4.43-4.43h48.46v18.816a2.034 2.034 0 0 0 2.033 2.033h16.876a2.034 2.034 0 0 0 2.033-2.033v-60.76a2.033 2.033 0 0 0-2.032-2.034zM53.5 15.592h7.829V30.8H53.5zm-8.47 19.27H69.8v9.826H45.029zm-3.352 30.51a8.506 8.506 0 0 0-8.5 8.5v11.044h-13.5V67.324a18.59 18.59 0 0 1 18.571-18.569h51.889v16.617zm65.337 20.849H94.2V29.528h12.81z" transform="translate(.587)" stroke="#e15928" fill="#e15928"/><path id="Path_108" data-name="Path 108" class="cls-2" d="M26.542 73.332a2.03 2.03 0 0 0-2.42 0c-.416.307-10.159 7.635-10.159 17.142a11.369 11.369 0 1 0 22.738 0c-.001-9.507-9.743-16.834-10.159-17.142z" transform="translate(0 23.895)"/></g></g></svg>